<svg xmlns="http://www.w3.org/2000/svg" xmlns:xlink="http://www.w3.org/1999/xlink" width="117" zoomAndPan="magnify" viewBox="0 0 87.75 87.749997" height="117" preserveAspectRatio="xMidYMid meet" version="1.0"><defs><clipPath id="1de67c012c"><path d="M 0 0 L 87.5 0 L 87.5 87.5 L 0 87.5 Z M 0 0 " clip-rule="nonzero"/></clipPath><clipPath id="1e6e59e7be"><path d="M 79.683594 0 L 87.5 0 L 87.5 87.5 L 79.683594 87.5 Z M 79.683594 0 " clip-rule="nonzero"/></clipPath><clipPath id="657a872ba4"><path d="M 83.589844 87.5 C 82.554688 87.5 81.558594 87.089844 80.828125 86.355469 C 80.09375 85.621094 79.683594 84.628906 79.683594 83.589844 L 79.683594 3.910156 C 79.683594 2.871094 80.09375 1.878906 80.828125 1.144531 C 81.558594 0.410156 82.554688 0 83.589844 0 C 84.628906 0 85.621094 0.410156 86.355469 1.144531 C 87.089844 1.878906 87.5 2.871094 87.5 3.910156 L 87.5 83.589844 C 87.5 84.628906 87.089844 85.621094 86.355469 86.355469 C 85.621094 87.089844 84.628906 87.5 83.589844 87.5 Z M 83.589844 87.5 " clip-rule="nonzero"/></clipPath><clipPath id="82fbed2e9f"><path d="M 0.683594 0 L 8.5 0 L 8.5 87.5 L 0.683594 87.5 Z M 0.683594 0 " clip-rule="nonzero"/></clipPath><clipPath id="511d3fab3b"><path d="M 4.589844 87.5 C 3.554688 87.5 2.558594 87.089844 1.828125 86.355469 C 1.09375 85.621094 0.683594 84.628906 0.683594 83.589844 L 0.683594 3.910156 C 0.683594 2.871094 1.09375 1.878906 1.828125 1.144531 C 2.558594 0.410156 3.554688 0 4.589844 0 C 5.628906 0 6.621094 0.410156 7.355469 1.144531 C 8.089844 1.878906 8.5 2.871094 8.5 3.910156 L 8.5 83.589844 C 8.5 84.628906 8.089844 85.621094 7.355469 86.355469 C 6.621094 87.089844 5.628906 87.5 4.589844 87.5 Z M 4.589844 87.5 " clip-rule="nonzero"/></clipPath><clipPath id="ff4b18b7c5"><rect x="0" width="9" y="0" height="88"/></clipPath><clipPath id="c2d70d336d"><path d="M 0 79.683594 L 87.5 79.683594 L 87.5 87.5 L 0 87.5 Z M 0 79.683594 " clip-rule="nonzero"/></clipPath><clipPath id="6d055d4fcd"><path d="M 83.589844 87.5 L 3.910156 87.5 C 2.871094 87.5 1.878906 87.089844 1.144531 86.355469 C 0.410156 85.621094 0 84.628906 0 83.589844 C 0 82.554688 0.410156 81.558594 1.144531 80.828125 C 1.878906 80.09375 2.871094 79.683594 3.910156 79.683594 L 83.589844 79.683594 C 84.628906 79.683594 85.621094 80.09375 86.355469 80.828125 C 87.089844 81.558594 87.5 82.554688 87.5 83.589844 C 87.5 84.628906 87.089844 85.621094 86.355469 86.355469 C 85.621094 87.089844 84.628906 87.5 83.589844 87.5 Z M 83.589844 87.5 " clip-rule="nonzero"/></clipPath><clipPath id="c9a5fa7310"><path d="M 0 0.683594 L 87.5 0.683594 L 87.5 8.5 L 0 8.5 Z M 0 0.683594 " clip-rule="nonzero"/></clipPath><clipPath id="997c7844e9"><path d="M 83.589844 8.5 L 3.910156 8.5 C 2.871094 8.5 1.878906 8.089844 1.144531 7.355469 C 0.410156 6.621094 0 5.628906 0 4.589844 C 0 3.554688 0.410156 2.558594 1.144531 1.828125 C 1.878906 1.09375 2.871094 0.683594 3.910156 0.683594 L 83.589844 0.683594 C 84.628906 0.683594 85.621094 1.09375 86.355469 1.828125 C 87.089844 2.558594 87.5 3.554688 87.5 4.589844 C 87.5 5.628906 87.089844 6.621094 86.355469 7.355469 C 85.621094 8.089844 84.628906 8.5 83.589844 8.5 Z M 83.589844 8.5 " clip-rule="nonzero"/></clipPath><clipPath id="81dac84fbd"><rect x="0" width="88" y="0" height="9"/></clipPath><clipPath id="c354c645b0"><rect x="0" width="88" y="0" height="88"/></clipPath></defs><g clip-path="url(#1de67c012c)"><g transform="matrix(1, 0, 0, 1, 0, 0.000000000000012722)"><g clip-path="url(#c354c645b0)"><g clip-path="url(#1e6e59e7be)"><g clip-path="url(#657a872ba4)"><g transform="matrix(1, 0, 0, 1, 79, 0.000000000000012722)"><g clip-path="url(#ff4b18b7c5)"><g clip-path="url(#82fbed2e9f)"><g clip-path="url(#511d3fab3b)"><path fill="#ffde59" d="M 8.5 87.5 L 0.683594 87.5 L 0.683594 -0.00390625 L 8.5 -0.00390625 Z M 8.5 87.5 " fill-opacity="1" fill-rule="nonzero"/></g></g></g></g></g></g><g clip-path="url(#c2d70d336d)"><g clip-path="url(#6d055d4fcd)"><g transform="matrix(1, 0, 0, 1, 0, 79)"><g clip-path="url(#81dac84fbd)"><g clip-path="url(#c9a5fa7310)"><g clip-path="url(#997c7844e9)"><path fill="#ffde59" d="M 87.5 8.5 L -0.00390625 8.5 L -0.00390625 0.683594 L 87.5 0.683594 Z M 87.5 8.5 " fill-opacity="1" fill-rule="nonzero"/></g></g></g></g></g></g></g></g></g></svg>